<svg width="859" height="300" viewBox="0 0 859 300" fill="none" xmlns="http://www.w3.org/2000/svg">
<g clip-path="url(#clip0_1_2)">
<rect width="859" height="300" fill="#FDFC51"/>
<path d="M56.736 82V55.552H66.578C69.5927 55.552 71.9993 56.274 73.798 57.718C75.5967 59.162 76.496 61.1253 76.496 63.608C76.496 65.1787 76.0907 66.572 75.28 67.788C74.4947 69.004 73.2787 70.068 71.632 70.98L78.358 82H72.278L66.844 72.918C65.4 73.3233 63.766 73.6653 61.942 73.944V82H56.736ZM61.942 69.422C65.286 68.9153 67.6167 68.206 68.934 67.294C70.2513 66.382 70.91 65.242 70.91 63.874C70.91 62.734 70.5427 61.8473 69.808 61.214C69.0733 60.5553 67.946 60.226 66.426 60.226H61.942V69.422ZM88.9953 82.304C86.9433 82.304 85.132 81.8607 83.5613 80.974C81.9907 80.0873 80.762 78.846 79.8753 77.25C79.014 75.654 78.5833 73.8553 78.5833 71.854C78.5833 69.9033 78.9887 68.1427 79.7993 66.572C80.6353 64.976 81.788 63.7347 83.2573 62.848C84.7267 61.936 86.386 61.48 88.2353 61.48C91.1233 61.48 93.3653 62.392 94.9613 64.216C96.5827 66.0147 97.3933 68.5227 97.3933 71.74V73.526H83.8653C84.1947 74.7927 84.8407 75.8187 85.8033 76.604C86.7913 77.3893 87.982 77.782 89.3753 77.782C90.566 77.782 91.6173 77.668 92.5293 77.44C93.4413 77.1867 94.3027 76.8193 95.1133 76.338L96.1013 80.48C95.1133 81.088 93.9987 81.544 92.7573 81.848C91.5413 82.152 90.2873 82.304 88.9953 82.304ZM92.2253 69.802C92.1747 68.4593 91.8073 67.4333 91.1233 66.724C90.4647 65.9893 89.502 65.622 88.2353 65.622C86.9687 65.622 85.9553 66.002 85.1953 66.762C84.4607 67.522 83.992 68.5353 83.7893 69.802H92.2253ZM109.87 82.304C107.818 82.304 106.007 81.8607 104.436 80.974C102.865 80.0873 101.637 78.846 100.75 77.25C99.8888 75.654 99.4581 73.8553 99.4581 71.854C99.4581 69.9033 99.8634 68.1427 100.674 66.572C101.51 64.976 102.663 63.7347 104.132 62.848C105.601 61.936 107.261 61.48 109.11 61.48C111.998 61.48 114.24 62.392 115.836 64.216C117.457 66.0147 118.268 68.5227 118.268 71.74V73.526H104.74C105.069 74.7927 105.715 75.8187 106.678 76.604C107.666 77.3893 108.857 77.782 110.25 77.782C111.441 77.782 112.492 77.668 113.404 77.44C114.316 77.1867 115.177 76.8193 115.988 76.338L116.976 80.48C115.988 81.088 114.873 81.544 113.632 81.848C112.416 82.152 111.162 82.304 109.87 82.304ZM113.1 69.802C113.049 68.4593 112.682 67.4333 111.998 66.724C111.339 65.9893 110.377 65.622 109.11 65.622C107.843 65.622 106.83 66.002 106.07 66.762C105.335 67.522 104.867 68.5353 104.664 69.802H113.1ZM121.397 82V61.822H126.261V64.938C126.844 63.8993 127.654 63.0633 128.693 62.43C129.732 61.7967 130.834 61.48 131.999 61.48C133.418 61.48 134.634 61.784 135.647 62.392C136.66 62.9747 137.446 63.8107 138.003 64.9C139.523 62.62 141.638 61.48 144.349 61.48C146.832 61.48 148.706 62.3667 149.973 64.14C151.265 65.888 151.911 68.3073 151.911 71.398V82H146.515V71.474C146.515 69.878 146.287 68.6493 145.831 67.788C145.375 66.9267 144.501 66.496 143.209 66.496C142.044 66.496 141.106 66.9013 140.397 67.712C139.688 68.5227 139.333 69.612 139.333 70.98V82H133.937V71.512C133.937 69.916 133.709 68.6873 133.253 67.826C132.822 66.9393 131.961 66.496 130.669 66.496C129.478 66.496 128.528 66.952 127.819 67.864C127.11 68.776 126.755 69.9667 126.755 71.436V82H121.397ZM166.951 82.304C165.583 82.304 164.354 82.0127 163.265 81.43C162.201 80.822 161.339 80.0113 160.681 78.998V82H155.817V53.5H161.175V64.444C161.859 63.5827 162.733 62.886 163.797 62.354C164.861 61.7967 166.039 61.518 167.331 61.518C169.079 61.518 170.637 61.9487 172.005 62.81C173.398 63.646 174.475 64.8367 175.235 66.382C176.02 67.9273 176.413 69.7007 176.413 71.702C176.413 73.754 176.007 75.5907 175.197 77.212C174.386 78.808 173.259 80.062 171.815 80.974C170.371 81.8607 168.749 82.304 166.951 82.304ZM166.191 77.516C167.052 77.516 167.85 77.3007 168.585 76.87C169.319 76.414 169.902 75.768 170.333 74.932C170.789 74.0707 171.017 73.0573 171.017 71.892C171.017 70.1693 170.548 68.814 169.611 67.826C168.673 66.838 167.546 66.344 166.229 66.344C164.759 66.344 163.543 66.8127 162.581 67.75C161.643 68.6873 161.175 69.9793 161.175 71.626V72.196C161.175 73.8427 161.656 75.1473 162.619 76.11C163.581 77.0473 164.772 77.516 166.191 77.516ZM189.007 82.304C187.107 82.304 185.359 81.848 183.763 80.936C182.193 79.9987 180.939 78.7447 180.001 77.174C179.089 75.578 178.633 73.8173 178.633 71.892C178.633 69.992 179.089 68.244 180.001 66.648C180.939 65.052 182.193 63.798 183.763 62.886C185.359 61.9487 187.107 61.48 189.007 61.48C190.907 61.48 192.643 61.9487 194.213 62.886C195.809 63.798 197.063 65.052 197.975 66.648C198.913 68.244 199.381 69.992 199.381 71.892C199.381 73.8173 198.913 75.578 197.975 77.174C197.063 78.7447 195.809 79.9987 194.213 80.936C192.643 81.848 190.907 82.304 189.007 82.304ZM189.007 77.402C190.451 77.402 191.642 76.8827 192.579 75.844C193.517 74.8053 193.985 73.488 193.985 71.892C193.985 70.296 193.517 68.9787 192.579 67.94C191.642 66.9013 190.451 66.382 189.007 66.382C187.563 66.382 186.373 66.9013 185.435 67.94C184.498 68.9787 184.029 70.296 184.029 71.892C184.029 73.488 184.498 74.8053 185.435 75.844C186.373 76.8827 187.563 77.402 189.007 77.402ZM209.566 82.304C207.311 82.304 205.576 81.6073 204.36 80.214C203.169 78.8207 202.574 76.794 202.574 74.134V53.5H207.97V74.096C207.97 75.1347 208.173 75.9453 208.578 76.528C208.983 77.0853 209.553 77.364 210.288 77.364C210.744 77.364 211.137 77.326 211.466 77.25C211.821 77.1487 212.188 76.9967 212.568 76.794L213.936 81.088C212.669 81.8987 211.213 82.304 209.566 82.304ZM222.677 82.304C221.334 82.304 219.916 82.1013 218.421 81.696C216.952 81.2907 215.786 80.8093 214.925 80.252L216.255 76.072C217.066 76.528 218.066 76.946 219.257 77.326C220.473 77.6807 221.676 77.858 222.867 77.858C224.666 77.858 225.565 77.3513 225.565 76.338C225.565 75.7807 225.274 75.3373 224.691 75.008C224.108 74.6787 223.07 74.2733 221.575 73.792C219.65 73.184 218.206 72.4113 217.243 71.474C216.306 70.5113 215.837 69.2067 215.837 67.56C215.837 65.7107 216.546 64.2413 217.965 63.152C219.409 62.0373 221.22 61.48 223.399 61.48C224.59 61.48 225.78 61.6573 226.971 62.012C228.162 62.3413 229.213 62.7973 230.125 63.38L228.795 67.37C227.959 66.9393 227.06 66.5847 226.097 66.306C225.16 66.0273 224.26 65.888 223.399 65.888C222.639 65.888 222.031 66.0147 221.575 66.268C221.119 66.5213 220.891 66.914 220.891 67.446C220.891 67.902 221.119 68.282 221.575 68.586C222.031 68.89 222.791 69.232 223.855 69.612C225.502 70.1947 226.794 70.7647 227.731 71.322C228.694 71.854 229.416 72.5127 229.897 73.298C230.404 74.058 230.657 75.046 230.657 76.262C230.657 78.162 229.935 79.644 228.491 80.708C227.047 81.772 225.109 82.304 222.677 82.304ZM241.192 61.48C243.979 61.48 246.145 62.2147 247.69 63.684C249.261 65.1533 250.046 67.2307 250.046 69.916V82H245.182V79.188C244.574 80.1 243.725 80.8473 242.636 81.43C241.572 82.0127 240.343 82.304 238.95 82.304C237.101 82.304 235.631 81.8227 234.542 80.86C233.478 79.872 232.946 78.5673 232.946 76.946C232.946 75.4767 233.339 74.248 234.124 73.26C234.935 72.2467 236.214 71.436 237.962 70.828C239.735 70.22 242.079 69.7767 244.992 69.498V69.384C244.992 67.2053 243.687 66.116 241.078 66.116C239.051 66.116 236.974 66.7113 234.846 67.902L233.668 63.532C234.808 62.8987 236.024 62.4047 237.316 62.05C238.633 61.67 239.925 61.48 241.192 61.48ZM240.128 78.276C240.989 78.276 241.787 78.0733 242.522 77.668C243.282 77.2373 243.877 76.642 244.308 75.882C244.764 75.122 244.992 74.2607 244.992 73.298V73.032C242.712 73.2093 240.964 73.5513 239.748 74.058C238.532 74.5647 237.924 75.312 237.924 76.3C237.924 76.908 238.114 77.3893 238.494 77.744C238.874 78.0987 239.419 78.276 240.128 78.276ZM254.183 82V55.552H263.607C266.495 55.552 268.788 56.1727 270.485 57.414C272.182 58.6553 273.031 60.4033 273.031 62.658C273.031 64.8873 272.056 66.686 270.105 68.054C273.196 69.6753 274.741 71.93 274.741 74.818C274.741 76.2113 274.374 77.4527 273.639 78.542C272.93 79.6313 271.891 80.48 270.523 81.088C269.155 81.696 267.559 82 265.735 82H254.183ZM259.199 67.18C262.34 66.724 264.557 66.1793 265.849 65.546C267.166 64.8873 267.825 64.0007 267.825 62.886C267.825 61.898 267.445 61.1633 266.685 60.682C265.95 60.1753 264.886 59.922 263.493 59.922H259.199V67.18ZM265.279 77.554C266.546 77.554 267.521 77.3007 268.205 76.794C268.914 76.262 269.269 75.5273 269.269 74.59C269.269 72.614 267.952 71.132 265.317 70.144C263.442 70.676 261.403 71.1067 259.199 71.436V77.554H265.279ZM277.99 82V55.552H287.414C290.302 55.552 292.594 56.1727 294.292 57.414C295.989 58.6553 296.838 60.4033 296.838 62.658C296.838 64.8873 295.862 66.686 293.912 68.054C297.002 69.6753 298.548 71.93 298.548 74.818C298.548 76.2113 298.18 77.4527 297.446 78.542C296.736 79.6313 295.698 80.48 294.33 81.088C292.962 81.696 291.366 82 289.542 82H277.99ZM283.006 67.18C286.147 66.724 288.364 66.1793 289.656 65.546C290.973 64.8873 291.632 64.0007 291.632 62.886C291.632 61.898 291.252 61.1633 290.492 60.682C289.757 60.1753 288.693 59.922 287.3 59.922H283.006V67.18ZM289.086 77.554C290.352 77.554 291.328 77.3007 292.012 76.794C292.721 76.262 293.076 75.5273 293.076 74.59C293.076 72.614 291.758 71.132 289.124 70.144C287.249 70.676 285.21 71.1067 283.006 71.436V77.554H289.086Z" fill="#5063F1"/>
<path d="M54.7 109L57.16 95.08H60.8C62.3467 95.08 63.52 95.3933 64.32 96.02C65.12 96.6333 65.52 97.4733 65.52 98.54C65.52 100.487 64.34 101.973 61.98 103L64.56 109H62.58L60.36 103.6C59.4533 103.853 58.42 104.073 57.26 104.26L56.44 109H54.7ZM57.54 102.68C59.6333 102.32 61.18 101.833 62.18 101.22C63.1933 100.593 63.7 99.7733 63.7 98.76C63.7 98.08 63.4533 97.5667 62.96 97.22C62.4667 96.8733 61.66 96.7 60.54 96.7H58.58L57.54 102.68ZM67.822 104.32V104.44C67.822 105.427 68.0554 106.193 68.522 106.74C69.002 107.287 69.722 107.56 70.682 107.56C71.7087 107.56 72.6754 107.34 73.582 106.9L73.862 108.34C73.382 108.607 72.8487 108.813 72.262 108.96C71.6887 109.093 71.1087 109.16 70.522 109.16C69.162 109.16 68.082 108.747 67.282 107.92C66.4954 107.093 66.102 105.993 66.102 104.62C66.102 103.54 66.342 102.52 66.822 101.56C67.302 100.6 67.962 99.8333 68.802 99.26C69.642 98.6733 70.5754 98.38 71.602 98.38C72.762 98.38 73.682 98.7467 74.362 99.48C75.0554 100.2 75.402 101.187 75.402 102.44C75.402 103 75.3287 103.627 75.182 104.32H67.822ZM71.442 99.92C70.6287 99.92 69.922 100.193 69.322 100.74C68.7354 101.287 68.3154 101.987 68.062 102.84H73.642C73.6554 102.747 73.662 102.587 73.662 102.36C73.662 101.613 73.4687 101.02 73.082 100.58C72.6954 100.14 72.1487 99.92 71.442 99.92ZM79.2977 109.16C78.071 109.16 76.9443 108.84 75.9177 108.2L76.5577 106.76C77.411 107.307 78.351 107.58 79.3777 107.58C80.0177 107.58 80.5243 107.447 80.8977 107.18C81.271 106.913 81.4577 106.553 81.4577 106.1C81.4577 105.687 81.3043 105.36 80.9977 105.12C80.7043 104.88 80.2777 104.647 79.7177 104.42C78.9043 104.087 78.3043 103.707 77.9177 103.28C77.5443 102.84 77.3577 102.307 77.3577 101.68C77.3577 101.053 77.5177 100.487 77.8377 99.98C78.171 99.4733 78.631 99.08 79.2177 98.8C79.8177 98.52 80.491 98.38 81.2377 98.38C81.7577 98.38 82.2643 98.46 82.7577 98.62C83.2643 98.7667 83.691 98.9667 84.0377 99.22L83.3977 100.6C82.651 100.16 81.9177 99.94 81.1977 99.94C80.5443 99.94 80.0177 100.08 79.6177 100.36C79.231 100.627 79.0377 100.993 79.0377 101.46C79.0377 101.78 79.151 102.06 79.3777 102.3C79.6177 102.527 80.0243 102.76 80.5977 103C81.4777 103.36 82.131 103.76 82.5577 104.2C82.9977 104.64 83.2177 105.213 83.2177 105.92C83.2177 106.56 83.051 107.127 82.7177 107.62C82.3977 108.1 81.9377 108.48 81.3377 108.76C80.751 109.027 80.071 109.16 79.2977 109.16ZM86.4086 109H84.6686L86.5286 98.54H88.2686L86.4086 109ZM87.7686 96.84C87.4486 96.84 87.1886 96.7467 86.9886 96.56C86.8019 96.3733 86.7086 96.12 86.7086 95.8C86.7086 95.4133 86.8419 95.08 87.1086 94.8C87.3753 94.52 87.7019 94.38 88.0886 94.38C88.3953 94.38 88.6419 94.4733 88.8286 94.66C89.0286 94.8467 89.1286 95.0933 89.1286 95.4C89.1286 95.8 88.9953 96.14 88.7286 96.42C88.4753 96.7 88.1553 96.84 87.7686 96.84ZM93.2952 109.16C92.5352 109.16 91.8552 108.98 91.2552 108.62C90.6552 108.247 90.1818 107.727 89.8352 107.06C89.5018 106.393 89.3352 105.613 89.3352 104.72C89.3352 103.613 89.5752 102.573 90.0552 101.6C90.5485 100.627 91.2152 99.8467 92.0552 99.26C92.9085 98.6733 93.8485 98.38 94.8752 98.38C95.5952 98.38 96.2285 98.5333 96.7752 98.84C97.3218 99.1467 97.7552 99.5533 98.0752 100.06L99.0952 94H100.855L98.2152 109H96.6152L96.8952 107.42C96.4685 107.927 95.9418 108.347 95.3152 108.68C94.7018 109 94.0285 109.16 93.2952 109.16ZM93.6752 107.56C94.4352 107.56 95.1085 107.34 95.6952 106.9C96.2952 106.447 96.7552 105.86 97.0752 105.14C97.3952 104.407 97.5552 103.633 97.5552 102.82C97.5552 101.847 97.3152 101.127 96.8352 100.66C96.3685 100.193 95.7552 99.96 94.9952 99.96C94.2218 99.96 93.5418 100.18 92.9552 100.62C92.3685 101.06 91.9152 101.64 91.5952 102.36C91.2752 103.08 91.1152 103.847 91.1152 104.66C91.1152 105.633 91.3485 106.36 91.8152 106.84C92.2952 107.32 92.9152 107.56 93.6752 107.56ZM102.863 104.32V104.44C102.863 105.427 103.096 106.193 103.563 106.74C104.043 107.287 104.763 107.56 105.723 107.56C106.749 107.56 107.716 107.34 108.623 106.9L108.903 108.34C108.423 108.607 107.889 108.813 107.303 108.96C106.729 109.093 106.149 109.16 105.563 109.16C104.203 109.16 103.123 108.747 102.323 107.92C101.536 107.093 101.143 105.993 101.143 104.62C101.143 103.54 101.383 102.52 101.863 101.56C102.343 100.6 103.003 99.8333 103.843 99.26C104.683 98.6733 105.616 98.38 106.643 98.38C107.803 98.38 108.723 98.7467 109.403 99.48C110.096 100.2 110.443 101.187 110.443 102.44C110.443 103 110.369 103.627 110.223 104.32H102.863ZM106.483 99.92C105.669 99.92 104.963 100.193 104.363 100.74C103.776 101.287 103.356 101.987 103.103 102.84H108.683C108.696 102.747 108.703 102.587 108.703 102.36C108.703 101.613 108.509 101.02 108.123 100.58C107.736 100.14 107.189 99.92 106.483 99.92ZM105.223 97H103.463L106.463 93.78H108.383L110.143 97H108.523L107.243 94.98L105.223 97ZM111.398 109L113.258 98.54H114.858L114.598 100.04C114.972 99.5333 115.445 99.1333 116.018 98.84C116.605 98.5333 117.258 98.38 117.978 98.38C119.058 98.38 119.878 98.72 120.438 99.4C121.012 100.08 121.298 101 121.298 102.16C121.298 102.653 121.252 103.133 121.158 103.6L120.218 109H118.458L119.458 103.4C119.525 102.96 119.558 102.6 119.558 102.32C119.558 101.56 119.385 100.98 119.038 100.58C118.692 100.18 118.192 99.98 117.538 99.98C116.712 99.98 115.985 100.287 115.358 100.9C114.745 101.5 114.345 102.287 114.158 103.26L113.138 109H111.398ZM127.159 109.16C126.333 109.16 125.599 108.98 124.959 108.62C124.333 108.247 123.839 107.727 123.479 107.06C123.133 106.38 122.959 105.6 122.959 104.72C122.959 103.6 123.219 102.553 123.739 101.58C124.273 100.607 124.986 99.8333 125.879 99.26C126.786 98.6733 127.766 98.38 128.819 98.38C129.393 98.38 129.893 98.44 130.319 98.56C130.746 98.6667 131.159 98.84 131.559 99.08L130.859 100.54C130.259 100.167 129.573 99.98 128.799 99.98C128.066 99.98 127.386 100.193 126.759 100.62C126.146 101.033 125.653 101.6 125.279 102.32C124.919 103.027 124.739 103.807 124.739 104.66C124.739 105.567 124.979 106.28 125.459 106.8C125.939 107.307 126.573 107.56 127.359 107.56C128.186 107.56 129.026 107.347 129.879 106.92L130.239 108.36C129.733 108.627 129.239 108.827 128.759 108.96C128.279 109.093 127.746 109.16 127.159 109.16ZM133.666 109H131.926L133.786 98.54H135.526L133.666 109ZM135.026 96.84C134.706 96.84 134.446 96.7467 134.246 96.56C134.06 96.3733 133.966 96.12 133.966 95.8C133.966 95.4133 134.1 95.08 134.366 94.8C134.633 94.52 134.96 94.38 135.346 94.38C135.653 94.38 135.9 94.4733 136.086 94.66C136.286 94.8467 136.386 95.0933 136.386 95.4C136.386 95.8 136.253 96.14 135.986 96.42C135.733 96.7 135.413 96.84 135.026 96.84ZM141.473 98.38C142.606 98.38 143.48 98.66 144.093 99.22C144.72 99.78 145.033 100.58 145.033 101.62C145.033 101.913 145 102.273 144.933 102.7L143.813 109H142.213L142.493 107.44C142.053 107.947 141.52 108.36 140.893 108.68C140.28 109 139.613 109.16 138.893 109.16C138.053 109.16 137.386 108.933 136.893 108.48C136.413 108.027 136.173 107.407 136.173 106.62C136.173 105.3 136.78 104.327 137.993 103.7C139.22 103.06 140.98 102.687 143.273 102.58L143.293 102.44C143.333 102.2 143.353 101.973 143.353 101.76C143.353 101.173 143.18 100.727 142.833 100.42C142.486 100.113 141.966 99.96 141.273 99.96C140.22 99.96 139.146 100.267 138.053 100.88L137.733 99.38C138.96 98.7133 140.206 98.38 141.473 98.38ZM139.213 107.68C139.746 107.68 140.28 107.54 140.813 107.26C141.346 106.98 141.806 106.6 142.193 106.12C142.58 105.64 142.82 105.127 142.913 104.58L143.033 103.94C141.366 104.007 140.1 104.247 139.233 104.66C138.366 105.073 137.933 105.7 137.933 106.54C137.933 106.887 138.046 107.167 138.273 107.38C138.513 107.58 138.826 107.68 139.213 107.68ZM155.287 109H153.527L155.687 96.72H151.147L151.467 95.08H162.307L161.987 96.72H157.467L155.287 109ZM161.664 104.32V104.44C161.664 105.427 161.898 106.193 162.364 106.74C162.844 107.287 163.564 107.56 164.524 107.56C165.551 107.56 166.518 107.34 167.424 106.9L167.704 108.34C167.224 108.607 166.691 108.813 166.104 108.96C165.531 109.093 164.951 109.16 164.364 109.16C163.004 109.16 161.924 108.747 161.124 107.92C160.338 107.093 159.944 105.993 159.944 104.62C159.944 103.54 160.184 102.52 160.664 101.56C161.144 100.6 161.804 99.8333 162.644 99.26C163.484 98.6733 164.418 98.38 165.444 98.38C166.604 98.38 167.524 98.7467 168.204 99.48C168.898 100.2 169.244 101.187 169.244 102.44C169.244 103 169.171 103.627 169.024 104.32H161.664ZM165.284 99.92C164.471 99.92 163.764 100.193 163.164 100.74C162.578 101.287 162.158 101.987 161.904 102.84H167.484C167.498 102.747 167.504 102.587 167.504 102.36C167.504 101.613 167.311 101.02 166.924 100.58C166.538 100.14 165.991 99.92 165.284 99.92ZM174.74 109.16C173.913 109.16 173.18 108.98 172.54 108.62C171.913 108.247 171.42 107.727 171.06 107.06C170.713 106.38 170.54 105.6 170.54 104.72C170.54 103.6 170.8 102.553 171.32 101.58C171.853 100.607 172.567 99.8333 173.46 99.26C174.367 98.6733 175.347 98.38 176.4 98.38C176.973 98.38 177.473 98.44 177.9 98.56C178.327 98.6667 178.74 98.84 179.14 99.08L178.44 100.54C177.84 100.167 177.153 99.98 176.38 99.98C175.647 99.98 174.967 100.193 174.34 100.62C173.727 101.033 173.233 101.6 172.86 102.32C172.5 103.027 172.32 103.807 172.32 104.66C172.32 105.567 172.56 106.28 173.04 106.8C173.52 107.307 174.153 107.56 174.94 107.56C175.767 107.56 176.607 107.347 177.46 106.92L177.82 108.36C177.313 108.627 176.82 108.827 176.34 108.96C175.86 109.093 175.327 109.16 174.74 109.16ZM179.507 109L181.367 98.54H182.967L182.707 100.04C183.08 99.5333 183.554 99.1333 184.127 98.84C184.714 98.5333 185.367 98.38 186.087 98.38C187.167 98.38 187.987 98.72 188.547 99.4C189.12 100.08 189.407 101 189.407 102.16C189.407 102.653 189.36 103.133 189.267 103.6L188.327 109H186.567L187.567 103.4C187.634 102.96 187.667 102.6 187.667 102.32C187.667 101.56 187.494 100.98 187.147 100.58C186.8 100.18 186.3 99.98 185.647 99.98C184.82 99.98 184.094 100.287 183.467 100.9C182.854 101.5 182.454 102.287 182.267 103.26L181.247 109H179.507ZM195.508 109.16C194.628 109.16 193.848 108.967 193.168 108.58C192.501 108.193 191.988 107.653 191.628 106.96C191.268 106.253 191.088 105.453 191.088 104.56C191.088 103.493 191.341 102.487 191.848 101.54C192.355 100.58 193.048 99.8133 193.928 99.24C194.821 98.6667 195.795 98.38 196.848 98.38C197.728 98.38 198.501 98.5733 199.168 98.96C199.835 99.3467 200.348 99.8933 200.708 100.6C201.068 101.293 201.248 102.087 201.248 102.98C201.248 104.047 200.995 105.06 200.488 106.02C199.981 106.967 199.288 107.727 198.408 108.3C197.528 108.873 196.561 109.16 195.508 109.16ZM195.548 107.56C196.281 107.56 196.948 107.353 197.548 106.94C198.148 106.527 198.615 105.973 198.948 105.28C199.295 104.587 199.468 103.84 199.468 103.04C199.468 102.12 199.228 101.38 198.748 100.82C198.281 100.26 197.628 99.98 196.788 99.98C196.055 99.98 195.388 100.187 194.788 100.6C194.188 101 193.715 101.547 193.368 102.24C193.035 102.92 192.868 103.667 192.868 104.48C192.868 105.4 193.101 106.147 193.568 106.72C194.048 107.28 194.708 107.56 195.548 107.56ZM205.54 109.16C204.66 109.16 203.993 108.933 203.54 108.48C203.087 108.027 202.86 107.353 202.86 106.46C202.86 106.073 202.9 105.66 202.98 105.22L205.04 94H206.8L204.68 105.58C204.627 105.927 204.6 106.167 204.6 106.3C204.6 107.153 204.98 107.58 205.74 107.58C206.18 107.58 206.62 107.46 207.06 107.22L207.36 108.6C206.747 108.973 206.14 109.16 205.54 109.16ZM212.462 109.16C211.582 109.16 210.802 108.967 210.122 108.58C209.455 108.193 208.942 107.653 208.582 106.96C208.222 106.253 208.042 105.453 208.042 104.56C208.042 103.493 208.295 102.487 208.802 101.54C209.309 100.58 210.002 99.8133 210.882 99.24C211.775 98.6667 212.749 98.38 213.802 98.38C214.682 98.38 215.455 98.5733 216.122 98.96C216.789 99.3467 217.302 99.8933 217.662 100.6C218.022 101.293 218.202 102.087 218.202 102.98C218.202 104.047 217.949 105.06 217.442 106.02C216.935 106.967 216.242 107.727 215.362 108.3C214.482 108.873 213.515 109.16 212.462 109.16ZM212.502 107.56C213.235 107.56 213.902 107.353 214.502 106.94C215.102 106.527 215.569 105.973 215.902 105.28C216.249 104.587 216.422 103.84 216.422 103.04C216.422 102.12 216.182 101.38 215.702 100.82C215.235 100.26 214.582 99.98 213.742 99.98C213.009 99.98 212.342 100.187 211.742 100.6C211.142 101 210.669 101.547 210.322 102.24C209.989 102.92 209.822 103.667 209.822 104.48C209.822 105.4 210.055 106.147 210.522 106.72C211.002 107.28 211.662 107.56 212.502 107.56ZM214.622 97H212.862L215.962 93.78H218.462L214.622 97ZM222.874 113.06C221.541 113.06 220.254 112.7 219.014 111.98L219.614 110.44C220.614 111.12 221.701 111.46 222.874 111.46C223.954 111.46 224.821 111.147 225.474 110.52C226.141 109.907 226.574 109.02 226.774 107.86L226.914 107.14C226.501 107.62 225.994 108.007 225.394 108.3C224.807 108.593 224.161 108.74 223.454 108.74C222.721 108.74 222.067 108.573 221.494 108.24C220.921 107.893 220.467 107.407 220.134 106.78C219.814 106.14 219.654 105.387 219.654 104.52C219.654 103.453 219.887 102.453 220.354 101.52C220.834 100.573 221.487 99.8133 222.314 99.24C223.141 98.6667 224.054 98.38 225.054 98.38C225.801 98.38 226.461 98.5533 227.034 98.9C227.607 99.2333 228.027 99.6733 228.294 100.22L228.594 98.54H230.194L228.474 108.18C228.221 109.687 227.601 110.873 226.614 111.74C225.641 112.62 224.394 113.06 222.874 113.06ZM223.854 107.16C224.601 107.16 225.261 106.947 225.834 106.52C226.421 106.093 226.867 105.533 227.174 104.84C227.494 104.147 227.654 103.413 227.654 102.64C227.654 101.72 227.421 101.047 226.954 100.62C226.501 100.18 225.901 99.96 225.154 99.96C224.421 99.96 223.767 100.173 223.194 100.6C222.621 101.013 222.181 101.567 221.874 102.26C221.567 102.953 221.414 103.693 221.414 104.48C221.414 105.387 221.634 106.06 222.074 106.5C222.527 106.94 223.121 107.16 223.854 107.16ZM232.645 109H230.905L232.765 98.54H234.505L232.645 109ZM234.005 96.84C233.685 96.84 233.425 96.7467 233.225 96.56C233.039 96.3733 232.945 96.12 232.945 95.8C232.945 95.4133 233.079 95.08 233.345 94.8C233.612 94.52 233.939 94.38 234.325 94.38C234.632 94.38 234.879 94.4733 235.065 94.66C235.265 94.8467 235.365 95.0933 235.365 95.4C235.365 95.8 235.232 96.14 234.965 96.42C234.712 96.7 234.392 96.84 234.005 96.84ZM239.772 109.16C238.945 109.16 238.212 108.98 237.572 108.62C236.945 108.247 236.452 107.727 236.092 107.06C235.745 106.38 235.572 105.6 235.572 104.72C235.572 103.6 235.832 102.553 236.352 101.58C236.885 100.607 237.599 99.8333 238.492 99.26C239.399 98.6733 240.379 98.38 241.432 98.38C242.005 98.38 242.505 98.44 242.932 98.56C243.359 98.6667 243.772 98.84 244.172 99.08L243.472 100.54C242.872 100.167 242.185 99.98 241.412 99.98C240.679 99.98 239.999 100.193 239.372 100.62C238.759 101.033 238.265 101.6 237.892 102.32C237.532 103.027 237.352 103.807 237.352 104.66C237.352 105.567 237.592 106.28 238.072 106.8C238.552 107.307 239.185 107.56 239.972 107.56C240.799 107.56 241.639 107.347 242.492 106.92L242.852 108.36C242.345 108.627 241.852 108.827 241.372 108.96C240.892 109.093 240.359 109.16 239.772 109.16ZM249.642 98.38C250.775 98.38 251.648 98.66 252.262 99.22C252.888 99.78 253.202 100.58 253.202 101.62C253.202 101.913 253.168 102.273 253.102 102.7L251.982 109H250.382L250.662 107.44C250.222 107.947 249.688 108.36 249.062 108.68C248.448 109 247.782 109.16 247.062 109.16C246.222 109.16 245.555 108.933 245.062 108.48C244.582 108.027 244.342 107.407 244.342 106.62C244.342 105.3 244.948 104.327 246.162 103.7C247.388 103.06 249.148 102.687 251.442 102.58L251.462 102.44C251.502 102.2 251.522 101.973 251.522 101.76C251.522 101.173 251.348 100.727 251.002 100.42C250.655 100.113 250.135 99.96 249.442 99.96C248.388 99.96 247.315 100.267 246.222 100.88L245.902 99.38C247.128 98.7133 248.375 98.38 249.642 98.38ZM247.382 107.68C247.915 107.68 248.448 107.54 248.982 107.26C249.515 106.98 249.975 106.6 250.362 106.12C250.748 105.64 250.988 105.127 251.082 104.58L251.202 103.94C249.535 104.007 248.268 104.247 247.402 104.66C246.535 105.073 246.102 105.7 246.102 106.54C246.102 106.887 246.215 107.167 246.442 107.38C246.682 107.58 246.995 107.68 247.382 107.68Z" fill="#5063F1"/>
<circle cx="574" cy="-5" r="82" fill="#5063F1"/>
<circle cx="42" cy="285" r="105" fill="#5063F1"/>
<rect x="703.644" y="150" width="227" height="294" rx="25" transform="rotate(26.1656 703.644 150)" fill="white"/>
</g>
<defs>
<clipPath id="clip0_1_2">
<rect width="859" height="300" fill="white"/>
</clipPath>
</defs>
</svg>
